<svg id="Capa_1" enable-background="new 0 0 511.279 511.279" height="512" viewBox="0 0 511.279 511.279" width="512" xmlns="http://www.w3.org/2000/svg"><g><path d="m477.629 81.876h-443.98c-.141 0-.28.008-.421.01v297.969l33.987 26.925h418.559l17.534-26.925v-272.31c.001-14.179-11.499-25.669-25.679-25.669z" fill="#c8effe"/><path d="m167.069 402.176v2.559c8.942-.966 18.382-1.972 18.382-1.972l1.505 40.736-9.517 32.23-1.713 4.604 2.686 4.489h154.528l10.269-18.955v-63.69h-176.14z" fill="#d7d0d6"/><path d="m195.5 402.176h-28.431v63.69l11.343 18.955h28.431l-11.343-18.955z" fill="#c9bfc8"/><path d="m37.615 379.856v42.32h440.015c14.18 0 25.68-11.49 25.68-25.67v-16.65z" fill="#efedef"/><g id="XMLID_774_"><g><path d="m46.764 396.506v-16.65h-38.795v16.65c0 14.18 11.5 25.67 25.68 25.67h38.795c-14.18 0-25.68-11.49-25.68-25.67z" fill="#e5e1e5"/><path d="m72.444 81.876h-38.795c-14.18 0-25.68 11.49-25.68 25.67v272.31h38.795v-272.31c0-14.18 11.5-25.67 25.68-25.67z" fill="#99e6fc"/></g></g><path d="m364.989 496.236-21.78-30.37h-162.857l-2.912 9.863-9.156 24.608 2.365 3.44h190.462c3.878-.001 6.138-4.391 3.878-7.541z" fill="#efedef"/><path d="m173.72 496.236 21.78-30.37h-28.431l-21.78 30.37c-2.26 3.15 0 7.54 3.88 7.54h28.431c-3.88 0-6.14-4.39-3.88-7.54z" fill="#e5e1e5"/><path d="m438.763 174.412c7.686 0 13.917 6.231 13.917 13.917v63.783c0 7.686-6.231 13.917-13.917 13.917h-366.247c-7.686 0-13.917-6.231-13.917-13.917v-63.783c0-7.686 6.231-13.917 13.917-13.917z" fill="#f2fbff"/><g id="XMLID_773_"><g><path d="m378.489 65.536h-83.08l-.51-.7 40.25-57.2c1.61.32 3.05 1.25 4.02 2.61l39.11 54.89c.09.12.16.26.21.4z" fill="#f2fbff"/><path d="m335.149 7.636-40.25 57.2-41.18-57.34h80.12c.45 0 .89.05 1.31.14z" fill="#dff6fd"/><path d="m253.719 7.496 41.18 57.34-.49.7h-81.38l-.49-.7z" fill="#c8effe"/><path d="m253.719 7.496-41.18 57.34-39.59-56.33c1.03-.65 2.24-1.01 3.49-1.01z" fill="#99e6fc"/><path d="m212.539 64.836-.51.7h-80.24c.05-.14.12-.28.21-.4l39.11-54.89c.5-.7 1.13-1.29 1.84-1.74z" fill="#62dbfb"/><path d="m255.228 215.664h.465v-.04l-.614-2.318-1.36-4.67-41.69-143.1h-80.24c-.25.6-.15 1.3.27 1.83l116.27 146.78c1.757 2.23 4.244 3.332 6.81 3.301z" fill="#01d0fb"/><path d="m295.409 65.536h83.08c.25.6.15 1.3-.27 1.83l-116.27 146.78c-1.51 1.9-4.62 3.041-6.81 3.301l-.06-4.141-1.36-4.67z" fill="#dff6fd"/><path d="m295.409 65.536-40.27 151.911-43.11-151.911h1 81.38z" fill="#99e6fc"/></g></g><g><path d="m477.633 74.371h-73.14c-4.142 0-7.5 3.358-7.5 7.5s3.358 7.5 7.5 7.5h73.14c10.021 0 18.174 8.153 18.174 18.174v264.811h-480.335v-264.811c0-10.021 8.153-18.174 18.174-18.174h72.14c4.142 0 7.5-3.358 7.5-7.5s-3.358-7.5-7.5-7.5h-72.14c-18.292 0-33.174 14.882-33.174 33.174v288.962c0 18.292 14.882 33.174 33.174 33.174h125.927v33.769l-20.374 28.412c-2.693 3.755-3.055 8.642-.944 12.753s6.292 6.665 10.914 6.665h211.94c4.621 0 8.803-2.554 10.914-6.665s1.749-8.998-.944-12.753l-19.471-27.153c-.143-.926-.453-1.796-.902-2.578v-32.449h126.927c18.292 0 33.174-14.882 33.174-33.174v-288.963c-.001-18.292-14.882-33.174-33.174-33.174zm0 340.31h-167.244c-4.142 0-7.5 3.358-7.5 7.5s3.358 7.5 7.5 7.5h25.316v28.68h-13.229c-4.142 0-7.5 3.358-7.5 7.5s3.358 7.5 7.5 7.5h16.878l16.434 22.918h-201.3l16.434-22.918h17.878c4.142 0 7.5-3.358 7.5-7.5s-3.358-7.5-7.5-7.5h-14.229v-28.68h103.854c4.142 0 7.5-3.358 7.5-7.5s-3.358-7.5-7.5-7.5h-244.779c-10.021 0-18.174-8.153-18.174-18.174v-9.151h480.334v9.151c0 10.021-8.152 18.174-18.173 18.174z"/><path d="m242.449 218.806c3.089 3.9 7.715 6.137 12.69 6.137s9.601-2.236 12.689-6.137l65.26-82.387c2.572-3.247 2.025-7.964-1.222-10.536-3.247-2.573-7.964-2.025-10.536 1.222l-57.013 71.975 36.717-126.045h63.126l-22.896 28.905c-2.572 3.247-2.025 7.964 1.222 10.536 3.246 2.572 7.964 2.026 10.536-1.222l31.08-39.235c2.568-3.244 2.687-7.863.285-11.237l-39.106-54.886c-2.632-3.692-6.909-5.896-11.442-5.896h-157.399c-4.533 0-8.81 2.204-11.441 5.897l-39.109 54.888c-2.401 3.373-2.282 7.993.288 11.235zm42.963-145.77-31.692 108.793-31.691-108.793zm-58.758-15 27.066-37.681 27.066 37.681zm41.688-43.036h52.139l-25.673 36.844zm-55.709 36.844-25.673-36.844h52.139zm-6.227 21.192 35.067 120.378-95.355-120.378zm157.606-15h-55.237l27.311-39.194zm-191.254-37.181 25.908 37.181h-52.399z"/><path d="m151.784 273.529h286.979c11.81 0 21.417-9.607 21.417-21.417v-63.783c0-11.81-9.607-21.417-21.417-21.417h-107.065c-4.142 0-7.5 3.358-7.5 7.5s3.358 7.5 7.5 7.5h107.064c3.539 0 6.417 2.878 6.417 6.417v63.783c0 3.539-2.878 6.417-6.417 6.417h-286.978c-4.142 0-7.5 3.358-7.5 7.5s3.358 7.5 7.5 7.5z"/><path d="m72.516 181.912h106.064c4.142 0 7.5-3.358 7.5-7.5s-3.358-7.5-7.5-7.5h-106.064c-11.81 0-21.417 9.607-21.417 21.417v63.783c0 11.81 9.607 21.417 21.417 21.417h47.305c4.142 0 7.5-3.358 7.5-7.5s-3.358-7.5-7.5-7.5h-47.305c-3.539 0-6.417-2.878-6.417-6.417v-63.783c0-3.539 2.878-6.417 6.417-6.417z"/></g></g></svg>